{
  "asset": {
    "generator": "glTF-Transform v4.2.1",
    "version": "2.0"
  },
  "accessors": [
    {
      "type": "VEC3",
      "componentType": 5126,
      "count": 13206,
      "max": [
        9.945099830627441,
        10,
        20.0039005279541
      ],
      "min": [
        -9.980400085449219,
        -9.816399574279785,
        -1
      ],
      "bufferView": 0,
      "byteOffset": 0
    },
    {
      "type": "VEC3",
      "componentType": 5126,
      "count": 13206,
      "bufferView": 0,
      "byteOffset": 12
    },
    {
      "type": "VEC3",
      "componentType": 5126,
      "count": 11268,
      "max": [
        15,
        15,
        30
      ],
      "min": [
        -15,
        -15,
        20
      ],
      "bufferView": 1,
      "byteOffset": 0
    },
    {
      "type": "VEC3",
      "componentType": 5126,
      "count": 11268,
      "bufferView": 1,
      "byteOffset": 12
    },
    {
      "type": "VEC3",
      "componentType": 5126,
      "count": 1308,
      "max": [
        11.54699993133545,
        12.585000038146973,
        23.018999099731445
      ],
      "min": [
        2.351599931716919,
        3.4303998947143555,
        20
      ],
      "bufferView": 2,
      "byteOffset": 0
    },
    {
      "type": "VEC3",
      "componentType": 5126,
      "count": 1308,
      "bufferView": 2,
      "byteOffset": 12
    },
    {
      "type": "VEC3",
      "componentType": 5126,
      "count": 2550,
      "max": [
        13.326899528503418,
        -1.0119999647140503,
        28.813400268554688
      ],
      "min": [
        4.034999847412109,
        -10.754899978637695,
        20.594999313354492
      ],
      "bufferView": 3,
      "byteOffset": 0
    },
    {
      "type": "VEC3",
      "componentType": 5126,
      "count": 2550,
      "bufferView": 3,
      "byteOffset": 12
    },
    {
      "type": "VEC3",
      "componentType": 5126,
      "count": 2100,
      "max": [
        -4.938000202178955,
        -5.98799991607666,
        24.729700088500977
      ],
      "min": [
        -13.158300399780273,
        -13.772199630737305,
        20
      ],
      "bufferView": 4,
      "byteOffset": 0
    },
    {
      "type": "VEC3",
      "componentType": 5126,
      "count": 2100,
      "bufferView": 4,
      "byteOffset": 12
    },
    {
      "type": "VEC3",
      "componentType": 5126,
      "count": 3450,
      "max": [
        0.006300000008195639,
        -0.027000000700354576,
        29.89739990234375
      ],
      "min": [
        -9.129599571228027,
        -9.186200141906738,
        25
      ],
      "bufferView": 5,
      "byteOffset": 0
    },
    {
      "type": "VEC3",
      "componentType": 5126,
      "count": 3450,
      "bufferView": 5,
      "byteOffset": 12
    },
    {
      "type": "VEC3",
      "componentType": 5126,
      "count": 3918,
      "max": [
        0,
        12.798800468444824,
        29.162200927734375
      ],
      "min": [
        -10.023900032043457,
        3,
        20.594999313354492
      ],
      "bufferView": 6,
      "byteOffset": 0
    },
    {
      "type": "VEC3",
      "componentType": 5126,
      "count": 3918,
      "bufferView": 6,
      "byteOffset": 12
    }
  ],
  "bufferViews": [
    {
      "buffer": 0,
      "byteOffset": 0,
      "byteLength": 316944,
      "byteStride": 24,
      "target": 34962
    },
    {
      "buffer": 0,
      "byteOffset": 316944,
      "byteLength": 270432,
      "byteStride": 24,
      "target": 34962
    },
    {
      "buffer": 0,
      "byteOffset": 587376,
      "byteLength": 31392,
      "byteStride": 24,
      "target": 34962
    },
    {
      "buffer": 0,
      "byteOffset": 618768,
      "byteLength": 61200,
      "byteStride": 24,
      "target": 34962
    },
    {
      "buffer": 0,
      "byteOffset": 679968,
      "byteLength": 50400,
      "byteStride": 24,
      "target": 34962
    },
    {
      "buffer": 0,
      "byteOffset": 730368,
      "byteLength": 82800,
      "byteStride": 24,
      "target": 34962
    },
    {
      "buffer": 0,
      "byteOffset": 813168,
      "byteLength": 94032,
      "byteStride": 24,
      "target": 34962
    }
  ],
  "buffers": [
    {
      "uri": "buffer.bin",
      "byteLength": 907200
    }
  ],
  "materials": [
    {
      "name": "color_16448225",
      "doubleSided": true,
      "pbrMetallicRoughness": {
        "baseColorFactor": [
          0.9803921568627451,
          0.9803921568627451,
          0.8823529411764706,
          1
        ],
        "metallicFactor": 0
      }
    },
    {
      "name": "color_15277357",
      "doubleSided": true,
      "pbrMetallicRoughness": {
        "baseColorFactor": [
          0.9137254901960784,
          0.11372549019607843,
          0.17647058823529413,
          1
        ],
        "metallicFactor": 0
      }
    },
    {
      "name": "color_16448250",
      "doubleSided": true,
      "pbrMetallicRoughness": {
        "baseColorFactor": [
          0.9803921568627451,
          0.9803921568627451,
          0.9803921568627451,
          1
        ],
        "metallicFactor": 0
      }
    }
  ],
  "meshes": [
    {
      "primitives": [
        {
          "attributes": {
            "POSITION": 0,
            "NORMAL": 1
          },
          "mode": 4,
          "material": 0
        }
      ]
    },
    {
      "primitives": [
        {
          "attributes": {
            "POSITION": 2,
            "NORMAL": 3
          },
          "mode": 4,
          "material": 1
        }
      ]
    },
    {
      "primitives": [
        {
          "attributes": {
            "POSITION": 4,
            "NORMAL": 5
          },
          "mode": 4,
          "material": 2
        }
      ]
    },
    {
      "primitives": [
        {
          "attributes": {
            "POSITION": 6,
            "NORMAL": 7
          },
          "mode": 4,
          "material": 2
        }
      ]
    },
    {
      "primitives": [
        {
          "attributes": {
            "POSITION": 8,
            "NORMAL": 9
          },
          "mode": 4,
          "material": 2
        }
      ]
    },
    {
      "primitives": [
        {
          "attributes": {
            "POSITION": 10,
            "NORMAL": 11
          },
          "mode": 4,
          "material": 2
        }
      ]
    },
    {
      "primitives": [
        {
          "attributes": {
            "POSITION": 12,
            "NORMAL": 13
          },
          "mode": 4,
          "material": 2
        }
      ]
    }
  ],
  "nodes": [
    {
      "matrix": [
        1,
        0,
        0,
        0,
        0,
        0,
        -1,
        0,
        0,
        1,
        0,
        0,
        0,
        -15,
        0,
        1
      ],
      "name": "empty_2",
      "children": [
        1,
        2,
        3,
        4,
        5,
        6,
        7
      ]
    },
    {
      "name": "g group_0_16448225",
      "mesh": 0
    },
    {
      "name": "g group_1_15277357",
      "mesh": 1
    },
    {
      "name": "g group_2_16448250",
      "mesh": 2
    },
    {
      "name": "g group_3_16448250",
      "mesh": 3
    },
    {
      "name": "g group_4_16448250",
      "mesh": 4
    },
    {
      "name": "g group_5_16448250",
      "mesh": 5
    },
    {
      "name": "g group_6_16448250",
      "mesh": 6
    }
  ],
  "scenes": [
    {
      "name": "empty_1",
      "nodes": [
        0
      ]
    }
  ],
  "scene": 0
}