{
  "asset": {
    "generator": "glTF-Transform v4.2.1",
    "version": "2.0"
  },
  "accessors": [
    {
      "type": "VEC3",
      "componentType": 5126,
      "count": 270,
      "max": [
        4,
        4,
        52
      ],
      "min": [
        -4,
        -4,
        48
      ],
      "bufferView": 0,
      "byteOffset": 0
    },
    {
      "type": "VEC3",
      "componentType": 5126,
      "count": 270,
      "bufferView": 0,
      "byteOffset": 12
    },
    {
      "type": "VEC3",
      "componentType": 5126,
      "count": 5130,
      "max": [
        10,
        9.944999694824219,
        48
      ],
      "min": [
        -9.944999694824219,
        -10,
        0
      ],
      "bufferView": 1,
      "byteOffset": 0
    },
    {
      "type": "VEC3",
      "componentType": 5126,
      "count": 5130,
      "bufferView": 1,
      "byteOffset": 12
    }
  ],
  "bufferViews": [
    {
      "buffer": 0,
      "byteOffset": 0,
      "byteLength": 6480,
      "byteStride": 24,
      "target": 34962
    },
    {
      "buffer": 0,
      "byteOffset": 6480,
      "byteLength": 123120,
      "byteStride": 24,
      "target": 34962
    }
  ],
  "buffers": [
    {
      "uri": "buffer.bin",
      "byteLength": 129600
    }
  ],
  "materials": [
    {
      "name": "color_40919",
      "doubleSided": true,
      "pbrMetallicRoughness": {
        "baseColorFactor": [
          0,
          0.6235294117647059,
          0.8431372549019608,
          1
        ],
        "metallicFactor": 0
      }
    },
    {
      "name": "color_-1023739142",
      "alphaMode": "BLEND",
      "doubleSided": true,
      "pbrMetallicRoughness": {
        "baseColorFactor": [
          0.9803921568627451,
          0.9803921568627451,
          0.9803921568627451,
          0.23921568627450984
        ],
        "metallicFactor": 0
      }
    }
  ],
  "meshes": [
    {
      "primitives": [
        {
          "attributes": {
            "POSITION": 0,
            "NORMAL": 1
          },
          "mode": 4,
          "material": 0
        }
      ]
    },
    {
      "primitives": [
        {
          "attributes": {
            "POSITION": 2,
            "NORMAL": 3
          },
          "mode": 4,
          "material": 1
        }
      ]
    }
  ],
  "nodes": [
    {
      "name": "empty_2",
      "children": [
        1,
        2
      ]
    },
    {
      "name": "g group_0_40919",
      "mesh": 0
    },
    {
      "name": "g group_1_-1023739142",
      "mesh": 1
    }
  ],
  "scenes": [
    {
      "name": "empty_1",
      "nodes": [
        0
      ]
    }
  ],
  "scene": 0
}